<?xml version="1.0" encoding="UTF-8" standalone="no"?>
<!-- Created with Inkscape (http://www.inkscape.org/) -->

<svg
   version="1.1"
   id="svg2"
   width="1076.52"
   height="1076.52"
   viewBox="0 0 1076.52 1076.52"
   sodipodi:docname="one-piece-mugiwara-flag-seeklogo.com.eps"
   xmlns:inkscape="http://www.inkscape.org/namespaces/inkscape"
   xmlns:sodipodi="http://sodipodi.sourceforge.net/DTD/sodipodi-0.dtd"
   xmlns="http://www.w3.org/2000/svg"
   xmlns:svg="http://www.w3.org/2000/svg">
  <defs
     id="defs6" />
  <sodipodi:namedview
     id="namedview4"
     pagecolor="#ffffff"
     bordercolor="#000000"
     borderopacity="0.25"
     inkscape:showpageshadow="2"
     inkscape:pageopacity="0.0"
     inkscape:pagecheckerboard="0"
     inkscape:deskcolor="#d1d1d1" />
  <g
     id="g8"
     inkscape:groupmode="layer"
     inkscape:label="ink_ext_XXXXXX"
     transform="matrix(1.3333333,0,0,-1.3333333,0,1076.52)">
    <g
       id="g10"
       transform="scale(0.1)">
      <path
         d="M 8073.9,0 H 0.00390625 V 8073.9 H 8073.9 V 0"
         style="fill:#231f20;fill-opacity:1;fill-rule:nonzero;stroke:none"
         id="path12" />
      <path
         d="m 6950.69,6132.46 c -11.24,11.7 -23.72,23.14 -37.11,34 -70.57,57.25 -157.24,87.84 -245.34,89.57 1.83,79.62 -20.15,159.03 -65.16,228.12 -13.86,21.29 -29.69,41.25 -47.07,59.37 -153.67,160.03 -408.86,165.21 -568.9,11.57 C 5836.17,6410.15 5823,6174.86 5950.94,6014.3 l -448.82,-430.92 c -134.1,215.68 -316.25,399.32 -533.93,536.75 -272.65,172.12 -588.6,263.1 -913.7,263.1 -325.09,0 -641.05,-90.98 -913.7,-263.1 -220.76,-139.37 -404.88,-326.33 -539.5,-545.98 l -478.32,459.26 c 127.96,160.54 114.77,395.84 -36.19,540.77 -77.52,74.44 -179.29,114.02 -286.84,112.04 -107.44,-2.18 -207.61,-46.08 -282.03,-123.59 -17.37,-18.08 -33.21,-38.05 -47.08,-59.36 -45.01,-69.1 -67,-148.52 -65.17,-228.14 -88.09,-1.73 -174.76,-32.32 -245.35,-89.58 -13.34,-10.83 -25.83,-22.27 -37.08,-33.99 -74.43,-77.52 -114.22,-179.39 -112.04,-286.84 2.19,-107.45 46.08,-207.61 123.61,-282.04 146.17,-140.36 371.78,-148.17 526.86,-26.49 l 677.58,-650.56 h -637.73 c -98.08,0 -177.87,-79.79 -177.87,-177.86 v -32.49 c 0,-98.08 79.79,-177.87 177.87,-177.87 h 666.33 c 1.23,-19.69 4.42,-37.49 7.32,-53.25 2.31,-12.49 5.8,-31.37 4.38,-36.99 l 47.12,-12.04 -42.41,-8.48 c 99.5,-497.57 360.23,-848.47 687.29,-1069.67 L 2192.8,2531.19 c -152.25,125.22 -377.97,122.61 -527.34,-14.38 -163.52,-149.94 -174.56,-404.96 -24.65,-568.43 10.98,-12 23.21,-23.73 36.33,-34.89 69.25,-58.84 155.19,-91.42 243.21,-95.17 -3.65,-79.55 16.51,-159.47 59.93,-229.58 13.39,-21.62 28.76,-41.95 45.68,-60.41 79.24,-86.41 187.81,-130.24 296.72,-130.24 97.19,0.01 194.65,34.92 271.76,105.62 154.24,141.44 172.81,376.39 48.58,539.8 l 312.25,286.32 c 54.33,-393.86 276.05,-697.42 604.46,-812.73 156.6,-58.15 321.58,-86.58 483.41,-86.57 265.16,0.02 521.84,76.33 718.83,223.18 209.28,156 334.85,379.3 364.45,641.41 l 292.87,-264.39 c -56.25,-75.03 -84.28,-166.48 -79.44,-261.3 5.48,-107.33 52.43,-206.11 132.2,-278.12 74.55,-67.32 169.43,-103.73 269.14,-103.73 6.98,0 13.99,0.18 21,0.53 107.33,5.49 206.1,52.43 278.11,132.19 16.78,18.58 32,39.02 45.24,60.78 42.87,70.46 62.41,150.51 58.14,230.03 87.99,4.43 173.68,37.67 242.46,97.03 13.02,11.25 25.16,23.08 36.04,35.15 72.02,79.76 108.67,182.8 103.19,290.14 -5.47,107.32 -52.43,206.1 -132.19,278.11 v 0.01 c -150.42,135.79 -376.16,136.7 -527.44,10.3 l -873.12,788.3 c 375.89,235.92 672.3,631.89 748.12,1203.57 l 0.49,3.69 h 703.06 c 98.08,0 177.87,79.79 177.87,177.87 v 32.49 c 0,98.07 -79.79,177.86 -177.87,177.86 h -689.73 l 657.69,631.46 c 155.06,-121.7 380.67,-113.88 526.85,26.49 160.03,153.64 165.23,408.84 11.59,568.88"
         style="fill:#231f20;fill-opacity:1;fill-rule:nonzero;stroke:none"
         id="path14" />
      <path
         d="M 6444.29,4810.63 H 1701.51 c -45.77,0 -82.87,-37.1 -82.87,-82.86 v -32.49 c 0,-45.77 37.1,-82.87 82.87,-82.87 h 3949.72 c -0.05,0.43 -0.08,0.86 -0.11,1.29 h 3.14 c -0.02,-0.43 -0.05,-0.86 -0.08,-1.29 h 790.11 c 45.77,0 82.87,37.1 82.87,82.87 v 32.49 c 0,45.76 -37.1,82.86 -82.87,82.86"
         style="fill:#fccb17;fill-opacity:1;fill-rule:nonzero;stroke:none"
         id="path16" />
      <path
         d="m 2957.07,5572.65 c 64.17,109.34 144.76,206.19 239.53,290.66 17.69,15.77 40.64,17.08 58.57,0.3 17.29,-16.18 22.55,-40.69 6.21,-58.18 -86.13,-92.27 -166.75,-188.69 -236.52,-294.09 -5.13,-7.74 -18.09,-10.3 -23.63,-13.25 -40.68,-1.75 -65.46,38.26 -44.16,74.56 z m 473.97,179.88 c 25.6,-20.41 27.63,-44.86 5.94,-72.35 -51.62,-65.43 -97.08,-134.59 -130.83,-211.56 -2.6,-5.92 -6.27,-11.19 -10.72,-15.75 -1.22,-1.25 -2.57,-2.36 -3.91,-3.5 -1.03,-0.86 -2,-1.8 -3.11,-2.57 -0.22,-0.16 -0.48,-0.29 -0.71,-0.45 -6.96,-4.58 -15.26,-7.28 -24.22,-7.28 -18.43,0 -34.2,11.31 -40.81,27.36 -2.13,5.18 -3.34,10.84 -3.34,16.79 0,0.85 0.2,1.66 0.25,2.5 -0.1,0.15 -0.15,0.32 -0.25,0.46 3.15,45.42 27.68,81.63 49.54,117.66 28.67,47.23 61.15,92.34 94.64,136.36 16.8,22.08 42.54,32.24 67.53,12.33 z m 71.65,-198.75 c 13.54,43.46 39.34,80.68 69.68,114 14.38,15.79 34.3,14.52 53.44,5.02 17.27,-8.58 25.16,-22.41 25.5,-52.67 -24.28,-35.43 -52.34,-80.28 -84.9,-121.59 -10.41,-13.2 -32.49,-8.36 -47.28,3.16 -17.06,13.27 -22.34,33.16 -16.44,52.08 z m 1175.48,140.77 c 22.93,15.23 47.68,10.28 62.16,-11.88 36.41,-55.72 60.56,-116.86 69.33,-181.06 0.52,-28.37 -7.53,-49.88 -35.46,-55.4 -30.48,-6.02 -50.65,9.79 -56.17,38.72 -10.14,53.17 -30.57,101.9 -56.48,148.82 -14.12,25.56 -4.99,46.43 16.62,60.8 z m 243.89,109.31 c 17.92,16.78 39.77,18.39 58.41,1.85 99.31,-88.12 162.27,-198.23 194.97,-321.6 -0.25,-27.58 -4.39,-47.99 -30.01,-55.61 -27.16,-8.07 -48.7,1.18 -56.69,27.48 -33.13,109.05 -91.2,202.54 -169.34,284.8 -18.46,19.44 -17.85,43.85 2.66,63.08 z M 3190.91,5394.85 h 2307.33 c -259.19,528.69 -808.27,893.38 -1443.75,893.38 -635.48,0 -1184.56,-364.69 -1443.75,-893.38 h 192.15 388.02"
         style="fill:#fccb17;fill-opacity:1;fill-rule:nonzero;stroke:none"
         id="path18" />
      <path
         d="M 2673.54,4909.27 H 5644.3 c -17.32,134.37 -51.84,263.44 -101.17,385.09 h -155.73 -318.34 -172.19 -1729.59 -129 -316.7 -155.73 c -49.33,-121.65 -83.84,-250.72 -101.17,-385.09 h 55.77 153.09"
         style="fill:#ed1c24;fill-opacity:1;fill-rule:nonzero;stroke:none"
         id="path20" />
      <path
         d="m 3655.89,2365.35 c 97.05,-23.21 291.25,-45.57 351.16,-42.75 -0.06,21.84 0.1,283.66 0,296.63 -158.13,2.13 -310.58,25.07 -455.18,66.07 l -44.65,-279.26 c 48.52,-15.65 98.11,-29.27 148.67,-40.69"
         style="fill:#ffffff;fill-opacity:1;fill-rule:nonzero;stroke:none"
         id="path22" />
      <path
         d="m 3045.6,2639.16 c 114.69,-83.01 242.19,-152.08 379.44,-204.31 l 44.17,276.29 c -142.53,48.49 -274.68,114.39 -395.75,196.13 -19.81,-85.43 -30.57,-176.86 -27.86,-268.11"
         style="fill:#ffffff;fill-opacity:1;fill-rule:nonzero;stroke:none"
         id="path24" />
      <path
         d="m 4092.76,2620.08 v -297.23 c 152.9,4.29 301.01,27.3 441.42,68.31 -5.16,34.35 -37.38,260.14 -41.86,288.67 -127.77,-34.7 -261.44,-55.08 -399.56,-59.75"
         style="fill:#ffffff;fill-opacity:1;fill-rule:nonzero;stroke:none"
         id="path26" />
      <path
         d="m 4582.79,2799.37 c 139.88,44.43 269.54,104.85 389.61,181.15 -27.81,89.24 -65.83,172.62 -115.14,249.92 C 4751,3171.18 4633.22,3134.45 4518.4,3097.2 l 44.11,-304.18 c 6.79,2.07 13.53,4.21 20.28,6.35"
         style="fill:#ffffff;fill-opacity:1;fill-rule:nonzero;stroke:none"
         id="path28" />
      <path
         d="m 4092.76,2718.69 c 130.12,4.34 261.59,17.82 386.47,51.41 -13.98,101.89 -30.25,204.51 -44.44,306.48 -110.55,-24.76 -225.24,-38.04 -342.03,-40.82 -6.58,-70.34 3.22,-242.58 0,-317.07"
         style="fill:#ffffff;fill-opacity:1;fill-rule:nonzero;stroke:none"
         id="path30" />
      <path
         d="m 3610.14,2774.61 c 124.29,-30.83 272.64,-59.07 396.91,-55.72 v 159.16 c 0.15,0 0.3,0.01 0.45,0.01 -0.97,52.41 0.61,105.77 -0.45,157.95 -3.89,0.1 -7.76,0.28 -11.64,0.4 -123.65,20.05 -256.11,17.27 -378.81,53.8 l -48.6,-304 c 13.97,-4.04 28.03,-7.85 42.14,-11.6"
         style="fill:#ffffff;fill-opacity:1;fill-rule:nonzero;stroke:none"
         id="path32" />
      <path
         d="m 4619.2,2719.51 c -14.92,-5 -28.93,-10.19 -43.87,-14.93 l 41.64,-287.08 c 144.63,51.3 296.4,114.65 414.61,212.43 -12.86,92.42 -18.04,188.57 -39.52,278.3 -114.47,-77.33 -238.61,-140.87 -372.86,-188.72"
         style="fill:#ffffff;fill-opacity:1;fill-rule:nonzero;stroke:none"
         id="path34" />
      <path
         d="m 3134.16,2980.68 c 109.01,-68.53 225.71,-125.34 351.22,-168.37 6.98,43.68 41.98,262.59 48.2,301.53 -110.56,34.48 -214.2,78.81 -313.92,133.89 -49.98,-75.92 -90.14,-158.22 -119.07,-244.8 11.07,-7.59 22.51,-14.57 33.57,-22.25"
         style="fill:#ffffff;fill-opacity:1;fill-rule:nonzero;stroke:none"
         id="path36" />
      <path
         d="m 4711.49,3559.57 c -583.49,-20.98 -603.39,865.08 -20.17,870.38 588.73,11.38 565.32,-873 20.17,-870.38 z m -564.67,-224.84 c -114.99,-68.44 -309.23,28.84 -248.31,154.82 95.17,201.93 499.65,8.36 248.31,-154.82 z m -725.14,215.57 c -531.72,3.18 -614.08,856.6 -39.01,888.8 586.52,-6.25 638.73,-837.1 39.01,-888.8 z m 2132.8,975.91 c -347.61,0 -2752.71,0 -3092.07,0 1.85,-41.26 19.44,-81.83 9.25,-122.27 1.84,7.14 3.78,14.24 5.74,21.34 354.55,-1772.94 2931.4,-1691.78 3169.16,100.93 -22.04,0 -69.72,0 -92.08,0"
         style="fill:#ffffff;fill-opacity:1;fill-rule:nonzero;stroke:none"
         id="path38" />
      <path
         d="m 1985.93,6033.28 c 15.5,11.03 30.23,23.58 43.9,37.81 117.56,122.44 113.6,317.01 -8.84,434.57 -122.44,117.56 -317.01,113.6 -434.57,-8.84 -13.66,-14.23 -25.61,-29.46 -35.99,-45.4 -57.52,-88.3 -64.83,-199.24 -22.77,-293.18 -101.42,40.56 -219.71,24.74 -307.49,-46.46 -9.86,-8 -19.39,-16.62 -28.41,-26.02 -117.57,-122.44 -113.61,-317 8.83,-434.56 122.44,-117.56 317.01,-113.6 434.57,8.84 9.02,9.4 17.24,19.27 24.84,29.45 l 708.64,-680.4 c 28.75,177.2 84.66,345.29 163.49,499.76 l -546.2,524.43"
         style="fill:#ffffff;fill-opacity:1;fill-rule:nonzero;stroke:none"
         id="path40" />
      <path
         d="m 6882.15,6066.67 c -9.03,9.4 -18.55,18.01 -28.42,26.01 -87.77,71.2 -206.06,87.01 -307.49,46.47 42.06,93.93 34.75,204.87 -22.77,293.17 -10.38,15.94 -22.32,31.17 -35.99,45.4 -117.57,122.44 -312.13,126.4 -434.57,8.84 -122.44,-117.56 -126.39,-312.12 -8.84,-434.57 13.67,-14.22 28.4,-26.78 43.91,-37.81 l -516.19,-495.61 c 79.58,-153.49 136.5,-320.59 166.46,-496.9 l 675.66,648.72 c 7.59,-10.18 15.81,-20.05 24.83,-29.45 117.57,-122.44 312.13,-126.4 434.57,-8.84 122.44,117.56 126.4,312.12 8.84,434.57"
         style="fill:#ffffff;fill-opacity:1;fill-rule:nonzero;stroke:none"
         id="path42" />
      <path
         d="m 5654.18,4612.41 c 0.03,0.43 0.06,0.86 0.08,1.29 h -3.14 c 0.03,-0.43 0.06,-0.86 0.11,-1.29 h 2.95"
         style="fill:#fccb17;fill-opacity:1;fill-rule:nonzero;stroke:none"
         id="path44" />
      <path
         d="m 6329.51,2441.03 c -125.99,113.75 -320.34,103.83 -434.09,-22.16 -8.73,-9.67 -16.65,-19.79 -23.92,-30.2 l -774.56,699.32 -109.26,98.64 c 66.89,-151.3 113.98,-318.89 135.84,-497.51 11.38,-93.14 15.34,-184.99 12.56,-274.7 l 11.41,-10.31 408.78,-369.06 c -15.16,-11.5 -29.5,-24.51 -42.72,-39.14 -113.75,-125.99 -103.83,-320.35 22.17,-434.1 125.98,-113.75 320.33,-103.82 434.08,22.17 13.22,14.64 24.69,30.24 34.59,46.49 54.77,90.02 58.69,201.13 13.77,293.73 102.61,-37.43 220.36,-17.98 305.91,55.87 9.61,8.3 18.87,17.2 27.6,26.87 113.75,126 103.83,320.34 -22.16,434.09"
         style="fill:#ffffff;fill-opacity:1;fill-rule:nonzero;stroke:none"
         id="path46" />
      <path
         d="m 2948.43,2639.09 c 10.38,205 54.51,398.04 124.96,570.69 l -87.99,-80.68 -797.33,-731.13 c -7.36,10.36 -15.35,20.41 -24.16,30.02 -114.72,125.1 -309.14,133.52 -434.24,18.8 -125.11,-114.72 -133.53,-309.14 -18.81,-434.24 8.8,-9.61 18.13,-18.44 27.8,-26.66 86.12,-73.2 204.02,-91.73 306.35,-53.52 -44.21,-92.94 -39.44,-204.01 16.03,-293.61 10.02,-16.17 21.61,-31.68 34.94,-46.22 114.73,-125.11 309.14,-133.53 434.25,-18.81 125.11,114.72 133.53,309.14 18.81,434.25 -13.33,14.54 -27.77,27.43 -43.02,38.8 l 420.18,385.3 22.38,20.52 c -3.2,61.19 -3.34,123.42 -0.15,186.49"
         style="fill:#ffffff;fill-opacity:1;fill-rule:nonzero;stroke:none"
         id="path48" />
      <path
         d="m 3037.26,2512.05 c 2.9,-388.21 175.35,-772.85 554.72,-905.59 658.29,-244.96 1498,71.71 1443.91,883.31 -287.12,-171.1 -622.6,-269.49 -981.1,-269.49 -373.78,0 -722.53,106.95 -1017.53,291.77"
         style="fill:#ffffff;fill-opacity:1;fill-rule:nonzero;stroke:none"
         id="path50" />
    </g>
  </g>
</svg>
